<svg width="77" height="105" viewBox="0 0 77 105" fill="none" xmlns="http://www.w3.org/2000/svg">
<path d="M29.1975 37.7209V42.7209L30.6975 44.2208C30.6975 42.5542 30.7975 39.2208 31.1975 39.2208C31.5975 39.2208 32.6975 39.8875 33.1975 40.2208C37.1975 42.6208 43.1975 40.2208 43.1975 40.2208C43.1975 40.2208 44.8642 39.2208 45.1975 39.2208V44.2208L47.1975 42.7208C46.7975 38.3208 47.1975 37.2208 47.1975 37.2208C49.6975 34.2208 49.6975 30.2208 49.6975 30.2208L53.1975 26.7208C53.3642 25.7208 53.5975 23.5209 53.1975 22.7209C52.7975 21.9209 52.0309 21.3875 51.6975 21.2209C51.2975 20.8209 48.1975 21.0542 46.6975 21.2209C47.1975 21.7209 47.1975 25.2209 47.6975 25.7209C48.1975 26.2209 47.6975 26.2209 48.6975 26.2209C49.4975 26.2209 49.6975 25.8875 49.6975 25.7209C49.6975 23.7209 50.3642 23.2209 50.6975 23.2209C51.0309 23.2209 51.6975 23.4209 51.6975 24.2209C51.6975 25.2209 51.1975 25.7209 51.1975 26.2209C51.1975 26.6209 49.1975 28.7209 48.1975 29.7209C48.1975 30.0542 48.0975 31.2209 47.6975 33.2209C47.2975 35.2209 43.8642 38.0542 42.1975 39.2209C41.3642 39.3875 39.3975 39.7209 38.1975 39.7209C36.9975 39.7209 35.6975 39.3875 35.1975 39.2209C28.7975 37.2209 27.8642 31.7209 28.1975 29.2209C27.8642 29.0542 26.9975 28.5209 26.1975 27.7209C25.3975 26.9209 24.6976 25.7209 24.6975 25.2209C24.6975 24.7208 24.8975 22.7209 25.6975 22.7209C26.4975 22.7209 27.0309 24.7209 27.1975 25.7209C27.5309 26.0542 28.2975 26.6209 28.6975 26.2209C29.0975 25.8209 28.8642 22.7209 28.6975 21.2209C27.8975 20.8209 25.6975 21.0542 24.6975 21.2209C22.1975 22.7208 23.1975 25.0542 23.1975 26.2209C23.5975 28.2209 25.3642 29.7209 26.1975 30.2209C25.7975 33.0209 28.0309 36.3876 29.1975 37.7209Z" fill="#38383A"/>
<path d="M0.0996799 72C-0.30032 70.8 0.59968 67.8333 1.09968 66.5C2.26634 63.1667 4.59967 56.2 4.59967 55C4.59967 53.8 7.93301 50.8333 9.59968 49.5L15.5997 47C19.0997 45.5 28.5997 42 28.5997 42C30.0997 43.1667 34.1997 45.5 38.5997 45.5C42.9997 45.5 46.7663 43.1667 48.0997 42C53.0997 44.1667 61.4178 47.3141 66.5997 49C68.5997 51 67.5997 49.5 69.0997 51.5C70.5997 53.5 71.5997 53.5 73.5997 62C74.433 64.8333 76.1997 70.6 76.5997 71C76.9997 71.4 75.7663 72.5 75.0997 73C72.5997 73.3333 68.0997 74.5 63.0997 75C62.3961 75.0704 61.5997 68.5 61.5997 68.5C61.5997 68.5 61.0997 67 60.5997 65.5C60.0997 64 60.0997 98 61.0997 99.5C61.8997 100.7 29.0997 100.333 15.5997 100C17.5997 88 17.7997 68.3 16.5997 65.5C16.0997 66 15.9194 73.7865 13.5997 75C10.5662 74.4882 0.495268 73.1868 0.0996799 72Z" fill="#38383A"/>
<path d="M61 47.5C59 45.1 51.3333 42.8333 48 42C47.2 44.4 41.1667 60 38 67.5C36.4 61.5 30.8333 47.1667 28 41C22.8 42.2 17.3333 45.8333 15.5 47.5C19.1 60.7 12.6667 71.6667 9 75.5V104.5H34.5C34.5 104.5 38.5 103.5 38.5 100.5C38.5 103.3 40.9042 104.333 42.1063 104.5H67V75.5C60.2 69.5 60.1667 54.3333 61 47.5Z" fill="#FDFAFA"/>
<path d="M22.5 77.5L20 44.5C18.4 44.9 18 46 18 46.5C18.4 54.5 17.8333 61.8333 17.5 64.5C17.5 66 13.6666 73.1667 11.5 76.5C11.1 77.3 11.3333 77.5 11.5 77.5H22.5Z" fill="#FDB309"/>
<path d="M54 77.5L56.5 44.5C58.1 44.9 58.5 46 58.5 46.5C58.1 54.5 58.6667 61.8333 59 64.5C59 66 62.8334 73.1667 65 76.5C65.4 77.3 65.1667 77.5 65 77.5H54Z" fill="#FDB309"/>
<path d="M49 77.5L51.5 42.5C51.5167 42.2665 50.5069 42.0694 50 42C49.6 44 42.8333 61.8333 39.5 70.5V77.5H49Z" fill="#FDB309"/>
<path d="M27.5 77.5L25 42.5C24.9833 42.2665 25.9931 42.0694 26.5 42C26.9 44 33.6667 61.8333 37 70.5V77.5H27.5Z" fill="#FDB309"/>
<path d="M65.5 83.5H39V88H65.5V83.5Z" fill="#FDB309"/>
<path d="M37.5 83.5H11V88H37.5V83.5Z" fill="#FDB309"/>
<path d="M37.5 93.5H11.5V103H34C36.4 102.2 37.5 100.333 37.5 99.5V93.5Z" fill="#FDB309"/>
<path d="M37.5 93.5H11.5V103H34C36.4 102.2 37.5 100.333 37.5 99.5V93.5Z" fill="#FDB309"/>
<path d="M39 93.5H65V103H42.5C40.1 102.2 39 100.333 39 99.5V93.5Z" fill="#FDB309"/>
<path d="M39 93.5H65V103H42.5C40.1 102.2 39 100.333 39 99.5V93.5Z" fill="#FDB309"/>
<path d="M54.8031 21.0537C37.1664 22.7676 25.0586 21.7678 21.2093 21.0537C20.3694 18.4828 22.2591 17.126 23.3089 16.769C22.889 9.05653 28.5579 3.37929 32.2323 2.84371C32.6522 5.84299 33.2821 9.62781 33.807 10.8775C32.9671 5.30741 32.5822 2.12957 32.7572 1.23692C36.9564 -0.905472 42.2054 0.165704 43.2552 1.23688C43.2552 3.37923 42.7303 8.73516 42.7303 10.8775C43.2552 8.19952 43.7801 6.05717 43.7801 2.84364C51.1288 4.98596 53.2284 14.448 52.7035 17.3045C55.328 17.3045 55.153 20.161 54.8031 21.0537Z" fill="#FDB309"/>
</svg>
