<svg width="80" height="79" viewBox="0 0 80 79" fill="none" xmlns="http://www.w3.org/2000/svg">
<g clip-path="url(#clip0_2_286)">
<g filter="url(#filter0_d_2_286)">
<path d="M56.7039 42.7534C57.6337 43.2395 58.7415 43.9009 59.3727 44.745C59.7002 45.1829 59.9137 45.7162 60.0841 46.2302C60.4163 47.2318 60.5945 48.3067 60.8295 49.3364L61.9277 54.0354C62.0699 54.6536 62.1781 55.3181 62.3933 55.9157L62.4108 55.9626C61.2941 57.583 59.8712 59.0833 58.4228 60.4154C57.5162 61.2873 56.4347 62.1598 55.3583 62.8203L55.2026 56.517C55.1974 53.9777 55.3573 51.4046 55.6489 48.8824L56.3431 44.438L56.7039 42.7534Z" fill="#013A41"/>
</g>
<g filter="url(#filter1_d_2_286)">
<path d="M22.8802 42.6963C23.5069 44.6332 23.8599 46.63 24.1197 48.6429C24.5329 51.8435 24.6745 55.0606 24.5665 58.2857L24.2518 63.1318L21.1974 60.908C19.7563 59.7191 18.3856 58.3586 17.249 56.88L18.0458 53.5186L19.1176 49.0381C19.3721 47.9579 19.5813 46.8221 19.9436 45.7737C20.0815 45.3746 20.2661 44.9896 20.5092 44.6421C21.1 43.7977 22.0175 43.2331 22.8802 42.6963Z" fill="#013A41"/>
</g>
<g filter="url(#filter2_d_2_286)">
<path d="M37.5464 11.952C37.5366 11.7567 37.5224 11.6174 37.6662 11.4691C37.976 11.1495 39.4772 11.1381 39.9655 11.149C40.4613 11.16 40.9549 11.227 41.4453 11.2962C41.6292 11.3221 41.8794 11.3366 42.016 11.4749C42.1376 11.598 42.1813 11.7534 42.1872 11.9222C42.9684 12.1506 43.7106 12.3908 44.4483 12.7341C46.5471 13.8987 47.9163 16.37 48.5528 18.5928L49.0173 20.4299L49.2984 21.7145L49.3319 21.7462C49.4228 21.8129 49.5375 21.8144 49.6432 21.8458C49.859 21.9099 49.9879 21.9946 50.076 22.1995C50.0603 22.346 50.0535 22.3964 49.933 22.5004C49.6376 22.7553 48.9797 23.1044 48.5921 23.1638L46.4343 24.2476L44.8043 24.861C43.4737 25.3397 42.0469 25.5399 40.6367 25.5883C38.0661 25.6765 35.7053 25.3057 33.3604 24.2282C32.6502 23.9716 32.031 23.4785 31.326 23.2015L31.0938 23.1443C30.6221 23.0006 29.8492 22.6831 29.6146 22.2381C29.6111 22.1466 29.5899 22.0851 29.6453 22.0069C29.7835 21.8119 30.1518 21.7914 30.3721 21.7515L30.6698 20.4001C31.0056 18.9248 31.4844 17.4981 32.1892 16.1535C32.5258 15.5113 32.9119 14.8731 33.3996 14.3303C33.9208 13.7504 34.5231 13.296 35.175 12.8715C35.9052 12.433 36.7265 12.1712 37.5464 11.952Z" fill="#FDB309"/>
</g>
<path d="M35.175 12.8714C35.9051 12.433 36.7265 12.1711 37.5464 11.952C37.6342 13.3649 37.5487 14.8241 37.5469 16.241L37.5494 17.6817C37.5533 17.9687 37.6186 18.3845 37.5195 18.6534C37.2661 18.8218 36.9518 18.8682 36.6508 18.8141C36.543 18.7947 36.4468 18.763 36.3812 18.6684C36.252 18.482 36.2423 18.0912 36.2032 17.8666L35.9116 16.3165L35.175 12.8714Z" fill="#CB8F0A"/>
<path d="M42.1872 11.9222C42.9683 12.1505 43.7105 12.3907 44.4482 12.734C44.3633 13.5204 44.1657 14.3034 44.0251 15.0825C43.933 15.5928 43.5051 18.4249 43.3169 18.6665C43.2468 18.7564 43.1371 18.7959 43.0273 18.8129C42.7365 18.8581 42.3951 18.8459 42.1593 18.6596C42.1072 18.3751 42.1386 18.0555 42.1406 17.7666L42.1515 16.006L42.1518 13.399C42.1521 12.9154 42.1163 12.4004 42.1872 11.9222Z" fill="#CB8F0A"/>
<path d="M30.6698 20.4001L43.3649 20.4089L47.3656 20.4179C47.8895 20.4203 48.5048 20.3541 49.0173 20.4299L49.2984 21.7145L49.3319 21.7462C49.4228 21.8129 49.5375 21.8144 49.6432 21.8458C49.859 21.9098 49.9879 21.9945 50.076 22.1994C50.0603 22.346 50.0535 22.3963 49.933 22.5004C49.6376 22.7552 48.9797 23.1044 48.5921 23.1637L46.4343 24.2476L44.8043 24.861C43.4737 25.3396 42.0469 25.5399 40.6367 25.5883C38.0661 25.6765 35.7053 25.3057 33.3604 24.2281C32.6502 23.9715 32.031 23.4785 31.326 23.2015L31.0938 23.1443C30.6221 23.0006 29.8492 22.6831 29.6146 22.238C29.6111 22.1466 29.5899 22.085 29.6453 22.0069C29.7835 21.8119 30.1518 21.7913 30.3721 21.7514L30.6698 20.4001Z" fill="#FDB309"/>
<path d="M30.6698 20.4001L43.3649 20.4089L47.3656 20.4179C47.8896 20.4203 48.5048 20.3541 49.0173 20.4299L49.2984 21.7145L49.2407 21.716C49.1221 21.7232 49.0157 21.7898 48.9063 21.8307C48.6954 21.9094 48.4766 21.9758 48.2582 22.0306C47.4866 22.2244 46.6887 22.3566 45.8985 22.4505C42.5053 22.8533 38.988 22.8189 35.5831 22.5809C33.8488 22.4596 32.0256 22.317 30.3721 21.7514L30.6698 20.4001Z" fill="#CB8F0A"/>
<g filter="url(#filter3_d_2_286)">
<path d="M46.4343 24.2476L48.5921 23.1638L48.5972 25.3991C48.96 25.4979 49.2089 25.5904 49.3997 25.9437C49.4741 26.0815 49.4993 26.2026 49.5139 26.3569C49.5757 27.016 49.5288 27.7232 49.5277 28.3869C49.5271 28.7698 49.5948 29.3302 49.4727 29.6865C49.3757 29.9692 49.0947 30.2473 48.8257 30.3717C48.6492 30.4532 48.3282 30.4901 48.1446 30.4152C48.0855 30.3912 48.077 30.3837 48.0274 30.3535C47.9959 30.2395 48.0209 30.2059 48.0582 30.0962C48.2594 29.8718 48.5963 29.9484 48.8042 29.7085C48.8689 29.6338 48.9294 29.5507 48.9434 29.4514C49.0042 29.0209 48.9455 28.4984 48.942 28.06C48.9375 27.5152 48.9726 26.9457 48.9336 26.4041C48.9235 26.2627 48.8462 26.1148 48.7329 26.0267C48.5982 25.9217 48.439 25.9152 48.276 25.9415C47.9686 25.9911 47.7649 26.1651 47.5978 26.4158C47.4412 26.6505 47.517 27.3371 47.5184 27.628L47.5342 29.7752C47.5377 30.1472 47.5703 30.5482 47.5271 30.9171C47.4076 31.9401 46.9487 32.9892 46.4472 33.8833L46.0871 34.4987C46.0567 34.5502 45.9803 34.6453 45.9685 34.6998C45.9542 34.7654 45.9766 34.8862 45.98 34.9591L46.0206 35.68C46.0735 36.4132 46.1407 37.1562 46.1433 37.8913L47.9175 39.3955L44.0664 46.2186L40.0525 43.0887C41.4658 42.44 42.8463 41.7342 44.0574 40.7537C44.636 40.2852 45.1368 39.7592 45.6384 39.2138L45.4285 35.4027C44.1056 36.965 42.6015 38.1557 40.4749 38.3318C38.7328 38.4759 37.0278 37.846 35.7129 36.7282C35.4267 36.4848 35.1557 36.2139 34.9001 35.9392C34.7528 35.7808 34.6177 35.5979 34.4477 35.4637L34.205 39.2246C35.3696 40.4871 36.6512 41.4788 38.196 42.258C38.7653 42.5452 39.3812 42.771 39.9346 43.084L36.0186 46.1574L31.7519 39.3651L33.7217 37.7976L33.8858 35.4115C33.8962 35.2697 33.9781 34.9039 33.9325 34.788C33.8814 34.6582 33.7562 34.506 33.681 34.3845L33.1946 33.5406C32.8032 32.7829 32.4625 31.8909 32.3703 31.0399C32.3027 30.4151 32.3417 29.7559 32.3443 29.1273L32.3514 27.6563C32.3532 27.2393 32.465 26.4899 32.1662 26.1584C32.0328 26.0104 31.8105 25.8918 31.6082 25.8831C31.4469 25.8761 31.3103 25.9578 31.1995 26.0679C31.1338 26.1332 31.0849 26.1962 31.0646 26.2883C30.9786 26.6778 31.0425 27.1807 31.0439 27.5837L31.035 29.2657C31.041 29.4831 31.0896 29.6231 31.265 29.7699C31.5378 29.9982 31.7796 29.7959 31.8563 30.2632C31.7971 30.3592 31.7575 30.4008 31.6407 30.4241C31.3752 30.4773 31.0773 30.3406 30.8716 30.1839C30.6433 30.01 30.5042 29.7294 30.4719 29.4482C30.4035 28.8522 30.4653 28.2054 30.4607 27.6018C30.4574 27.1733 30.3746 26.6702 30.45 26.2498C30.4864 26.0472 30.5793 25.8579 30.716 25.7023C30.8132 25.5916 30.9427 25.5052 31.0746 25.4399C31.1074 25.4236 31.3202 25.34 31.3303 25.3245C31.3508 25.2928 31.3293 24.9632 31.3292 24.9074L31.326 23.2015C32.031 23.4785 32.6502 23.9716 33.3604 24.2282C35.7053 25.3057 38.0661 25.6765 40.6367 25.5883C42.0469 25.5399 43.4737 25.3397 44.8043 24.861L46.4343 24.2476Z" fill="#013A41"/>
</g>
<g filter="url(#filter4_d_2_286)">
<path d="M38.9533 44.2037L40.3443 44.1961C40.5244 44.1941 40.8116 44.1551 40.9804 44.1963C41.1555 44.2389 42.2293 45.1231 42.4604 45.2965C42.1469 45.9151 41.8029 46.655 41.3694 47.1956L41.2207 47.1986L38.6568 47.2089L37.579 45.304L38.9533 44.2037Z" fill="#013A41"/>
</g>
<g filter="url(#filter5_d_2_286)">
<path d="M38.693 47.4887L41.3108 47.4963L41.7501 50.0318C41.7704 50.1485 41.8652 50.4153 41.8487 50.5203C41.8278 50.6529 41.6448 50.9013 41.5721 51.0348L40.4716 53.0281L39.9363 53.9534C39.7394 53.6266 38.0752 50.5894 38.087 50.4456C38.1054 50.2221 38.2189 49.935 38.2655 49.7056L38.693 47.4887Z" fill="#013A41"/>
</g>
<path d="M33.3604 24.2281C35.7053 25.3057 38.0661 25.6765 40.6367 25.5883C42.0469 25.5399 43.4737 25.3396 44.8043 24.861L46.4343 24.2476L46.4722 24.4946C46.5329 25.1982 46.5179 25.9149 46.5183 26.6205C46.5185 26.9993 46.5643 27.4575 46.4749 27.8265C46.4357 27.9885 46.3435 28.1512 46.2308 28.2747C46.059 28.4629 45.8786 28.536 45.6252 28.5478L43.3227 28.5495L38.7223 28.5441L35.8846 28.5502C35.4171 28.5549 34.9146 28.6082 34.4518 28.5667C34.1797 28.5424 33.9536 28.4462 33.7541 28.2585C33.5785 28.0932 33.4665 27.8565 33.423 27.6225C33.3486 27.2229 33.3945 26.7401 33.3924 26.332L33.3604 24.2281Z" fill="#F8FDFC"/>
<g filter="url(#filter6_d_2_286)">
<path d="M26.739 63.7676C27.163 57.863 27.2416 51.9075 26.203 46.0552C25.9523 44.6422 25.6737 43.1044 24.998 41.8203L31.0293 39.5958L39.2984 54.4798C39.3739 54.5931 39.4107 54.6842 39.4189 54.8213C39.4441 55.2428 39.4168 55.6737 39.4137 56.0963L39.3963 58.592L39.3937 63.7624L26.739 63.7676Z" fill="#FDB309"/>
</g>
<g filter="url(#filter7_d_2_286)">
<path d="M40.9783 67.4822L40.2369 67.5157L40.2241 58.3694L40.2128 56.1525C40.2115 55.9141 40.1647 55.5667 40.2187 55.3387C40.2936 55.0228 40.5808 54.6093 40.7349 54.3125L42.3716 51.2215L47.1908 42.3854L48.7528 39.5703L54.5582 41.7734C52.9318 47.8304 52.5701 54.1815 52.8507 60.4234L53.1004 63.8178L53.7068 63.7867C53.0981 64.2245 52.3253 64.5389 51.6406 64.8461C50.7932 65.2263 49.9537 65.6035 49.0762 65.9132C46.5315 66.8111 43.6816 67.3904 40.9783 67.4822Z" fill="#FDB309"/>
</g>
<path d="M26.7389 63.7676L39.3937 63.7623L39.3783 67.5343C38.2768 67.499 37.1735 67.4547 36.0787 67.322C34.171 67.0908 32.2538 66.6445 30.4286 66.0543C29.1614 65.6444 27.8643 65.1426 26.6971 64.4998L26.7389 63.7676Z" fill="#009682"/>
<path d="M53.5176 63.7419L54.1935 63.7097C53.515 64.1625 52.6534 64.4878 51.89 64.8056C50.9453 65.1988 50.0093 65.589 49.0311 65.9093C46.1941 66.8381 43.0168 67.4373 40.003 67.5322L40 63.7243L53.5176 63.7419Z" fill="#009682"/>
<g filter="url(#filter8_d_2_286)">
<path d="M63.3291 14.7686C63.6066 14.7909 63.9945 15.0154 64.2578 15.1183L67.2298 16.2874L74.5896 19.1583C74.5191 22.6623 74.528 26.2509 73.5712 29.6524C73.1897 31.0085 72.6992 32.2319 72.0838 33.4984C71.7279 34.2307 71.3618 34.9477 70.9191 35.634C69.7166 37.4981 68.1384 39.1781 66.4249 40.5893C65.4849 41.3635 64.5121 42.0719 63.4446 42.6671C62.7937 42.3258 62.1604 41.881 61.5681 41.4498C60.6395 40.7739 59.7429 40.0439 58.9296 39.2348C56.0166 36.3367 53.9028 32.7203 52.9334 28.741C52.5579 27.1996 52.3559 25.5793 52.2483 23.9974C52.1353 22.3388 52.1713 20.6672 52.1756 19.0059L63.3291 14.7686Z" fill="#013A41"/>
</g>
<path d="M63.416 17.0565L63.4477 17.0733C63.8324 17.2732 64.2559 17.423 64.6575 17.5883L67.1046 18.5557L72.4217 20.5947C72.3996 22.7114 72.3499 24.8982 72.0174 26.9932C71.3541 31.171 69.4 34.9432 66.3395 37.8963L63.4961 40.2186L63.4239 40.1913L63.4205 33.0973C64.6795 33.0952 65.9521 32.566 66.8971 31.7576C67.9664 30.8428 68.738 29.4736 68.819 28.0628C68.9009 26.6372 68.4614 25.1728 67.4789 24.1041C66.3754 22.9038 65.0523 22.3752 63.4373 22.3011L63.416 17.0565Z" fill="#FDB309"/>
<path d="M63.4239 40.1913C62.8709 39.7871 62.3043 39.3946 61.7797 38.9541C59.7775 37.2732 58.0919 35.262 56.8249 32.9867C54.9832 29.6793 54.3291 25.9448 54.2891 22.2053L54.2757 21.0302C54.2741 20.8672 54.2448 20.6618 54.2905 20.5066L63.416 17.0565L63.4373 22.3011C65.0522 22.3752 66.3754 22.9038 67.4789 24.1041C68.4614 25.1728 68.9008 26.6372 68.819 28.0628C68.738 29.4736 67.9664 30.8428 66.8971 31.7576C65.9521 32.566 64.6794 33.0952 63.4205 33.0973L63.4239 40.1913Z" fill="#CB8F0A"/>
<path d="M63.4373 22.3011C65.0523 22.3752 66.3754 22.9038 67.4789 24.1041C68.4614 25.1728 68.9009 26.6372 68.819 28.0628C68.738 29.4736 67.9664 30.8428 66.8971 31.7576C65.9521 32.566 64.6794 33.0952 63.4205 33.0973C62.2819 33.1052 61.0473 32.7576 60.1169 32.1053C59.0141 31.3321 58.1321 30.0962 57.9051 28.7664C57.6437 27.2351 57.8852 25.8258 58.8086 24.5531C59.6723 23.3626 60.8569 22.6638 62.3047 22.3998C62.6797 22.3314 63.0572 22.3206 63.4373 22.3011Z" fill="#013A41"/>
<path d="M63.1913 23.2387C63.497 23.2185 63.8421 23.2456 64.141 23.314C64.9141 23.4912 65.6048 23.7826 66.228 24.2777C67.1245 24.9899 67.7306 26.1054 67.8464 27.2363C67.9657 28.4018 67.6065 29.5814 66.8508 30.4851C65.9766 31.5306 64.8592 32.0388 63.509 32.1634C62.3848 32.212 61.2496 31.7685 60.3909 31.0658C59.5256 30.3577 58.8865 29.2658 58.7895 28.1503C58.6839 26.935 59.0103 25.7652 59.8232 24.8315C60.701 23.8232 61.8683 23.3343 63.1913 23.2387Z" fill="#F8FDFC"/>
<path d="M62.8755 24.4664C63.6718 24.3872 64.4282 24.5372 65.1125 24.9545C65.8662 25.414 66.3803 26.2114 66.5688 27.0601C66.754 27.8937 66.5366 28.7542 66.0624 29.4534C65.5495 30.2097 64.7385 30.6696 63.8514 30.8463C63.4316 30.9405 62.9789 30.9083 62.5626 30.8142C61.689 30.6169 61.001 30.1097 60.5284 29.3632C60.0894 28.6697 59.892 27.761 60.0955 26.957L60.1145 26.8862C60.2136 26.5084 60.3695 26.1434 60.5983 25.8233C61.156 25.043 61.9423 24.6342 62.8755 24.4664Z" fill="#013A41"/>
<path d="M63.0293 25.0093C63.6338 24.9126 64.3872 25.1195 64.8905 25.4534C65.48 25.8444 65.9239 26.5431 66.0394 27.2331C66.1562 27.9306 65.9516 28.7372 65.5179 29.301C65.0407 29.9216 64.3792 30.2086 63.6112 30.3057C63.3074 30.355 62.9576 30.3149 62.6586 30.2475C61.999 30.0988 61.3681 29.6531 61.013 29.084C60.6496 28.5013 60.4593 27.7454 60.6365 27.0706L60.6557 27.0019C60.7478 26.6649 60.8899 26.3735 61.1018 26.0946C61.5769 25.4691 62.2522 25.1142 63.0293 25.0093Z" fill="#F8FDFC"/>
<path d="M63.2039 25.3558C63.781 25.3487 64.3276 25.5071 64.7834 25.864C65.2647 26.241 65.613 26.7568 65.6812 27.3684C65.7461 27.9503 65.6096 28.616 65.2219 29.0733C64.7469 29.6336 64.1635 29.8466 63.4473 29.9161C62.9534 29.962 62.427 29.822 62.0193 29.5438C61.5124 29.1981 61.0908 28.6132 60.9926 28.0049C60.8951 27.401 61.0476 26.7617 61.4287 26.2773C61.8806 25.7027 62.4866 25.4363 63.2039 25.3558Z" fill="#013A41"/>
<g filter="url(#filter9_d_2_286)">
<path d="M38.0674 5.95675L38.0838 5.95507C39.4213 5.87251 40.7912 5.94099 42.1241 6.05347C48.1914 6.56544 53.9716 8.66324 58.9879 12.0575C59.9978 12.7408 61.0295 13.4687 61.9384 14.2802L57.8516 15.8532L56.8979 16.2312C56.8723 16.242 56.8477 16.2721 56.8213 16.2637C56.7785 16.2501 56.6763 16.1573 56.6353 16.1278L56.2095 15.8293L54.4191 14.6578C52.6294 13.6094 50.6231 12.6863 48.6516 12.0232C43.5035 10.2917 37.8784 10.0346 32.5962 11.3308C30.4534 11.8566 28.3937 12.6457 26.4162 13.6092C25.6546 13.9802 24.9253 14.41 24.2018 14.848C18.4824 18.3108 13.9905 23.7238 11.8378 30.0179C9.35672 37.272 9.80094 45.4822 13.2491 52.363C16.7157 59.2806 22.8822 64.5834 30.291 67.0506C31.879 67.5794 33.5387 67.9341 35.1953 68.1715C36.4088 68.3454 37.6207 68.4734 38.8477 68.5029C43.629 68.6178 48.3913 67.5458 52.6693 65.4477C55.2751 64.1698 57.5691 62.5737 59.6881 60.6052C60.2547 60.0788 60.827 59.5617 61.3535 58.995C63.6838 56.4866 65.4935 53.5032 66.7895 50.3557L67.5832 48.1615C68.2575 45.8817 68.8146 43.5272 68.9349 41.1457L68.9648 40.1294C68.9674 40.0299 68.9493 39.8354 68.9866 39.7474C69.0189 39.6711 69.1186 39.5806 69.1728 39.5177L69.6815 38.929L70.7888 37.5656C71.643 36.4321 72.4138 35.2265 73.0577 33.9638L73.4025 37.2663C73.8502 44.9749 71.6327 52.7905 67.0839 59.0794C66.2778 60.1938 65.3752 61.2168 64.4533 62.2377C63.7035 63.0681 62.8739 63.8261 62.0309 64.5628C56.4689 69.4237 49.0263 72.603 41.5887 73.012C39.3474 73.1352 37.0955 73.0822 34.8694 72.7795C28.2123 71.8743 21.828 68.9088 16.8314 64.4794C10.1299 58.5386 5.90401 50.1365 5.4289 41.2274C4.9654 32.536 8.10672 23.7867 14.0045 17.313C19.3439 11.4522 26.4603 7.57672 34.3527 6.32085C35.585 6.12477 36.8216 6.02161 38.0674 5.95675Z" fill="#009682"/>
</g>
</g>
<defs>
<filter id="filter0_d_2_286" x="51.2025" y="42.7534" width="15.2083" height="28.067" filterUnits="userSpaceOnUse" color-interpolation-filters="sRGB">
<feFlood flood-opacity="0" result="BackgroundImageFix"/>
<feColorMatrix in="SourceAlpha" type="matrix" values="0 0 0 0 0 0 0 0 0 0 0 0 0 0 0 0 0 0 127 0" result="hardAlpha"/>
<feOffset dy="4"/>
<feGaussianBlur stdDeviation="2"/>
<feComposite in2="hardAlpha" operator="out"/>
<feColorMatrix type="matrix" values="0 0 0 0 0 0 0 0 0 0 0 0 0 0 0 0 0 0 0.25 0"/>
<feBlend mode="normal" in2="BackgroundImageFix" result="effect1_dropShadow_2_286"/>
<feBlend mode="normal" in="SourceGraphic" in2="effect1_dropShadow_2_286" result="shape"/>
</filter>
<filter id="filter1_d_2_286" x="13.249" y="42.6963" width="15.3524" height="28.4355" filterUnits="userSpaceOnUse" color-interpolation-filters="sRGB">
<feFlood flood-opacity="0" result="BackgroundImageFix"/>
<feColorMatrix in="SourceAlpha" type="matrix" values="0 0 0 0 0 0 0 0 0 0 0 0 0 0 0 0 0 0 127 0" result="hardAlpha"/>
<feOffset dy="4"/>
<feGaussianBlur stdDeviation="2"/>
<feComposite in2="hardAlpha" operator="out"/>
<feColorMatrix type="matrix" values="0 0 0 0 0 0 0 0 0 0 0 0 0 0 0 0 0 0 0.25 0"/>
<feBlend mode="normal" in2="BackgroundImageFix" result="effect1_dropShadow_2_286"/>
<feBlend mode="normal" in="SourceGraphic" in2="effect1_dropShadow_2_286" result="shape"/>
</filter>
<filter id="filter2_d_2_286" x="25.6077" y="11.1465" width="28.4683" height="22.4543" filterUnits="userSpaceOnUse" color-interpolation-filters="sRGB">
<feFlood flood-opacity="0" result="BackgroundImageFix"/>
<feColorMatrix in="SourceAlpha" type="matrix" values="0 0 0 0 0 0 0 0 0 0 0 0 0 0 0 0 0 0 127 0" result="hardAlpha"/>
<feOffset dy="4"/>
<feGaussianBlur stdDeviation="2"/>
<feComposite in2="hardAlpha" operator="out"/>
<feColorMatrix type="matrix" values="0 0 0 0 0 0 0 0 0 0 0 0 0 0 0 0 0 0 0.25 0"/>
<feBlend mode="normal" in2="BackgroundImageFix" result="effect1_dropShadow_2_286"/>
<feBlend mode="normal" in="SourceGraphic" in2="effect1_dropShadow_2_286" result="shape"/>
</filter>
<filter id="filter3_d_2_286" x="26.4184" y="23.1638" width="27.1274" height="31.0549" filterUnits="userSpaceOnUse" color-interpolation-filters="sRGB">
<feFlood flood-opacity="0" result="BackgroundImageFix"/>
<feColorMatrix in="SourceAlpha" type="matrix" values="0 0 0 0 0 0 0 0 0 0 0 0 0 0 0 0 0 0 127 0" result="hardAlpha"/>
<feOffset dy="4"/>
<feGaussianBlur stdDeviation="2"/>
<feComposite in2="hardAlpha" operator="out"/>
<feColorMatrix type="matrix" values="0 0 0 0 0 0 0 0 0 0 0 0 0 0 0 0 0 0 0.25 0"/>
<feBlend mode="normal" in2="BackgroundImageFix" result="effect1_dropShadow_2_286"/>
<feBlend mode="normal" in="SourceGraphic" in2="effect1_dropShadow_2_286" result="shape"/>
</filter>
<filter id="filter4_d_2_286" x="33.579" y="44.1775" width="12.8813" height="11.0314" filterUnits="userSpaceOnUse" color-interpolation-filters="sRGB">
<feFlood flood-opacity="0" result="BackgroundImageFix"/>
<feColorMatrix in="SourceAlpha" type="matrix" values="0 0 0 0 0 0 0 0 0 0 0 0 0 0 0 0 0 0 127 0" result="hardAlpha"/>
<feOffset dy="4"/>
<feGaussianBlur stdDeviation="2"/>
<feComposite in2="hardAlpha" operator="out"/>
<feColorMatrix type="matrix" values="0 0 0 0 0 0 0 0 0 0 0 0 0 0 0 0 0 0 0.25 0"/>
<feBlend mode="normal" in2="BackgroundImageFix" result="effect1_dropShadow_2_286"/>
<feBlend mode="normal" in="SourceGraphic" in2="effect1_dropShadow_2_286" result="shape"/>
</filter>
<filter id="filter5_d_2_286" x="34.087" y="47.4887" width="11.7636" height="14.4647" filterUnits="userSpaceOnUse" color-interpolation-filters="sRGB">
<feFlood flood-opacity="0" result="BackgroundImageFix"/>
<feColorMatrix in="SourceAlpha" type="matrix" values="0 0 0 0 0 0 0 0 0 0 0 0 0 0 0 0 0 0 127 0" result="hardAlpha"/>
<feOffset dy="4"/>
<feGaussianBlur stdDeviation="2"/>
<feComposite in2="hardAlpha" operator="out"/>
<feColorMatrix type="matrix" values="0 0 0 0 0 0 0 0 0 0 0 0 0 0 0 0 0 0 0.25 0"/>
<feBlend mode="normal" in2="BackgroundImageFix" result="effect1_dropShadow_2_286"/>
<feBlend mode="normal" in="SourceGraphic" in2="effect1_dropShadow_2_286" result="shape"/>
</filter>
<filter id="filter6_d_2_286" x="20.998" y="39.5958" width="22.4314" height="32.1718" filterUnits="userSpaceOnUse" color-interpolation-filters="sRGB">
<feFlood flood-opacity="0" result="BackgroundImageFix"/>
<feColorMatrix in="SourceAlpha" type="matrix" values="0 0 0 0 0 0 0 0 0 0 0 0 0 0 0 0 0 0 127 0" result="hardAlpha"/>
<feOffset dy="4"/>
<feGaussianBlur stdDeviation="2"/>
<feComposite in2="hardAlpha" operator="out"/>
<feColorMatrix type="matrix" values="0 0 0 0 0 0 0 0 0 0 0 0 0 0 0 0 0 0 0.35 0"/>
<feBlend mode="normal" in2="BackgroundImageFix" result="effect1_dropShadow_2_286"/>
<feBlend mode="normal" in="SourceGraphic" in2="effect1_dropShadow_2_286" result="shape"/>
</filter>
<filter id="filter7_d_2_286" x="36.1927" y="39.5703" width="22.3654" height="35.9454" filterUnits="userSpaceOnUse" color-interpolation-filters="sRGB">
<feFlood flood-opacity="0" result="BackgroundImageFix"/>
<feColorMatrix in="SourceAlpha" type="matrix" values="0 0 0 0 0 0 0 0 0 0 0 0 0 0 0 0 0 0 127 0" result="hardAlpha"/>
<feOffset dy="4"/>
<feGaussianBlur stdDeviation="2"/>
<feComposite in2="hardAlpha" operator="out"/>
<feColorMatrix type="matrix" values="0 0 0 0 0 0 0 0 0 0 0 0 0 0 0 0 0 0 0.35 0"/>
<feBlend mode="normal" in2="BackgroundImageFix" result="effect1_dropShadow_2_286"/>
<feBlend mode="normal" in="SourceGraphic" in2="effect1_dropShadow_2_286" result="shape"/>
</filter>
<filter id="filter8_d_2_286" x="48.1668" y="14.7686" width="30.4228" height="35.8985" filterUnits="userSpaceOnUse" color-interpolation-filters="sRGB">
<feFlood flood-opacity="0" result="BackgroundImageFix"/>
<feColorMatrix in="SourceAlpha" type="matrix" values="0 0 0 0 0 0 0 0 0 0 0 0 0 0 0 0 0 0 127 0" result="hardAlpha"/>
<feOffset dy="4"/>
<feGaussianBlur stdDeviation="2"/>
<feComposite in2="hardAlpha" operator="out"/>
<feColorMatrix type="matrix" values="0 0 0 0 0 0 0 0 0 0 0 0 0 0 0 0 0 0 0.25 0"/>
<feBlend mode="normal" in2="BackgroundImageFix" result="effect1_dropShadow_2_286"/>
<feBlend mode="normal" in="SourceGraphic" in2="effect1_dropShadow_2_286" result="shape"/>
</filter>
<filter id="filter9_d_2_286" x="1.38397" y="5.91864" width="76.0751" height="75.1551" filterUnits="userSpaceOnUse" color-interpolation-filters="sRGB">
<feFlood flood-opacity="0" result="BackgroundImageFix"/>
<feColorMatrix in="SourceAlpha" type="matrix" values="0 0 0 0 0 0 0 0 0 0 0 0 0 0 0 0 0 0 127 0" result="hardAlpha"/>
<feOffset dy="4"/>
<feGaussianBlur stdDeviation="2"/>
<feComposite in2="hardAlpha" operator="out"/>
<feColorMatrix type="matrix" values="0 0 0 0 0 0 0 0 0 0 0 0 0 0 0 0 0 0 0.25 0"/>
<feBlend mode="normal" in2="BackgroundImageFix" result="effect1_dropShadow_2_286"/>
<feBlend mode="normal" in="SourceGraphic" in2="effect1_dropShadow_2_286" result="shape"/>
</filter>
<clipPath id="clip0_2_286">
<rect width="80" height="79" fill="white"/>
</clipPath>
</defs>
</svg>
