<svg width="77" height="103" viewBox="0 0 77 103" fill="none" xmlns="http://www.w3.org/2000/svg">
<path d="M29.1975 35.7209V40.7209L30.6975 42.2208C30.6975 40.5542 30.7975 37.2208 31.1975 37.2208C31.5975 37.2208 32.6975 37.8875 33.1975 38.2208C37.1975 40.6208 43.1975 38.2208 43.1975 38.2208C43.1975 38.2208 44.8642 37.2208 45.1975 37.2208V42.2208L47.1975 40.7208C46.7975 36.3208 47.1975 35.2208 47.1975 35.2208C49.6975 32.2208 49.6975 28.2208 49.6975 28.2208L53.1975 24.7208C53.3642 23.7208 53.5975 21.5209 53.1975 20.7209C52.7975 19.9209 52.0309 19.3875 51.6975 19.2209C51.2975 18.8209 48.1975 19.0542 46.6975 19.2209C47.1975 19.7209 47.1975 23.2209 47.6975 23.7209C48.1975 24.2209 47.6975 24.2209 48.6975 24.2209C49.4975 24.2209 49.6975 23.8875 49.6975 23.7209C49.6975 21.7209 50.3642 21.2209 50.6975 21.2209C51.0309 21.2209 51.6975 21.4209 51.6975 22.2209C51.6975 23.2209 51.1975 23.7209 51.1975 24.2209C51.1975 24.6209 49.1975 26.7209 48.1975 27.7209C48.1975 28.0542 48.0975 29.2209 47.6975 31.2209C47.2975 33.2209 43.8642 36.0542 42.1975 37.2209C41.3642 37.3875 39.3975 37.7209 38.1975 37.7209C36.9975 37.7209 35.6975 37.3875 35.1975 37.2209C28.7975 35.2209 27.8642 29.7209 28.1975 27.2209C27.8642 27.0542 26.9975 26.5209 26.1975 25.7209C25.3975 24.9209 24.6976 23.7209 24.6975 23.2209C24.6975 22.7208 24.8975 20.7209 25.6975 20.7209C26.4975 20.7209 27.0309 22.7209 27.1975 23.7209C27.5309 24.0542 28.2975 24.6209 28.6975 24.2209C29.0975 23.8209 28.8642 20.7209 28.6975 19.2209C27.8975 18.8209 25.6975 19.0542 24.6975 19.2209C22.1975 20.7208 23.1975 23.0542 23.1975 24.2209C23.5975 26.2209 25.3642 27.7209 26.1975 28.2209C25.7975 31.0209 28.0309 34.3876 29.1975 35.7209Z" fill="#38383A"/>
<path d="M0.0996799 70C-0.30032 68.8 0.59968 65.8333 1.09968 64.5C2.26634 61.1667 4.59967 54.2 4.59967 53C4.59967 51.8 7.93301 48.8333 9.59968 47.5L15.5997 45C19.0997 43.5 28.5997 40 28.5997 40C30.0997 41.1667 34.1997 43.5 38.5997 43.5C42.9997 43.5 46.7663 41.1667 48.0997 40C53.0997 42.1667 61.4178 45.3141 66.5997 47C68.5997 49 67.5997 47.5 69.0997 49.5C70.5997 51.5 71.5997 51.5 73.5997 60C74.433 62.8333 76.1997 68.6 76.5997 69C76.9997 69.4 75.7663 70.5 75.0997 71C72.5997 71.3333 68.0997 72.5 63.0997 73C62.3961 73.0704 61.5997 66.5 61.5997 66.5C61.5997 66.5 61.0997 65 60.5997 63.5C60.0997 62 60.0997 96 61.0997 97.5C61.8997 98.7 29.0997 98.3333 15.5997 98C17.5997 86 17.7997 66.3 16.5997 63.5C16.0997 64 15.9194 71.7865 13.5997 73C10.5662 72.4882 0.495268 71.1868 0.0996799 70Z" fill="#38383A"/>
<path d="M61 45.5C59 43.1 51.3333 40.8333 48 40C47.2 42.4 41.1667 58 38 65.5C36.4 59.5 30.8333 45.1667 28 39C22.8 40.2 17.3333 43.8333 15.5 45.5C19.1 58.7 12.6667 69.6667 9 73.5V102.5H34.5C34.5 102.5 38.5 101.5 38.5 98.5C38.5 101.3 40.9042 102.333 42.1063 102.5H67V73.5C60.2 67.5 60.1667 52.3333 61 45.5Z" fill="#FDFAFA"/>
<path d="M22.5 75.5L20 42.5C18.4 42.9 18 44 18 44.5C18.4 52.5 17.8333 59.8333 17.5 62.5C17.5 64 13.6666 71.1667 11.5 74.5C11.1 75.3 11.3333 75.5 11.5 75.5H22.5Z" fill="#FDB309"/>
<path d="M54 75.5L56.5 42.5C58.1 42.9 58.5 44 58.5 44.5C58.1 52.5 58.6667 59.8333 59 62.5C59 64 62.8334 71.1667 65 74.5C65.4 75.3 65.1667 75.5 65 75.5H54Z" fill="#FDB309"/>
<path d="M49 75.5L51.5 40.5C51.5167 40.2665 50.5069 40.0694 50 40C49.6 42 42.8333 59.8333 39.5 68.5V75.5H49Z" fill="#FDB309"/>
<path d="M27.5 75.5L25 40.5C24.9833 40.2665 25.9931 40.0694 26.5 40C26.9 42 33.6667 59.8333 37 68.5V75.5H27.5Z" fill="#FDB309"/>
<path d="M65.5 81.5H39V86H65.5V81.5Z" fill="#FDB309"/>
<path d="M37.5 81.5H11V86H37.5V81.5Z" fill="#FDB309"/>
<path d="M37.5 91.5H11.5V101H34C36.4 100.2 37.5 98.3333 37.5 97.5V91.5Z" fill="#FDB309"/>
<path d="M37.5 91.5H11.5V101H34C36.4 100.2 37.5 98.3333 37.5 97.5V91.5Z" fill="#FDB309"/>
<path d="M39 91.5H65V101H42.5C40.1 100.2 39 98.3333 39 97.5V91.5Z" fill="#FDB309"/>
<path d="M39 91.5H65V101H42.5C40.1 100.2 39 98.3333 39 97.5V91.5Z" fill="#FDB309"/>
<path d="M42.5 11.8944C42 18.3944 28.9641 18.4736 29 18.3944C28.6 19.1944 28.5 22.0611 28.5 23.3944C27.3 20.5944 26 20.5 25 19.5C23 15.5 23 10.5 24 9.5C23.9999 6 27.1667 4.06109 28.5 2.89443C32.5 -1.10557 40.8333 -0.105573 44.5 0.894427C48.5 2.89443 49.1667 5.39443 49 6.39443C51.8 7.59443 52.5 9.22776 52.5 9.89443C52.9 14.6944 52.3333 17.8944 52 18.8944C51.1667 19.7278 49.5 21.2944 49.5 20.8944C49.5 20.4944 47.5 20 47 19.5C44.5 16.5 44.5 15.2278 44.5 14.3944C44.1 11.5944 43 11.5611 42.5 11.8944Z" fill="#38383A"/>
</svg>
