<svg width="24" height="24" viewBox="0 0 24 24" fill="none" xmlns="http://www.w3.org/2000/svg">
<path fill-rule="evenodd" clip-rule="evenodd" d="M3.30831 18.302C3.18363 16.9856 3.18359 15.2489 3.18359 12.9618C3.18359 7.72143 7.24481 3.46783 12.2679 3.46783C17.291 3.46783 21.3701 7.72143 21.3701 12.9618C21.3701 15.4467 21.37 17.2813 21.2097 18.6368C22.4388 19.4045 23.2582 20.7725 23.2582 22.3329C23.2582 22.5644 23.2582 22.7052 23.2582 22.7052H0.6008V22.3329C0.6008 20.5107 1.72301 18.9521 3.30831 18.302Z" fill="#F4BB31"/>
<path fill-rule="evenodd" clip-rule="evenodd" d="M1.33316 22.0019C1.18432 22.2233 1.05594 22.4596 0.949889 22.707H0.598236V22.3331C0.598236 20.5526 1.66618 19.0233 3.19735 18.348C3.20107 18.4838 3.2048 18.6158 3.20852 18.7461C2.15364 19.4717 1.43548 20.6512 1.33316 22.0019Z" fill="#F7CC65"/>
<path fill-rule="evenodd" clip-rule="evenodd" d="M21.3407 18.7238C22.4997 19.5052 23.2606 20.8298 23.2606 22.333C23.2606 22.5656 23.2606 22.707 23.2606 22.707H22.909C22.5574 21.8865 21.9584 21.1945 21.2086 20.7275C21.2774 20.1507 21.3165 19.4865 21.3407 18.7238Z" fill="#F7CC65"/>
<path fill-rule="evenodd" clip-rule="evenodd" d="M3.18054 14.8019C3.17682 14.2326 3.17682 13.6205 3.17682 12.9638C3.17682 7.72285 7.25317 3.46796 12.2746 3.46796C17.2941 3.46796 21.3703 7.72285 21.3703 12.9638C21.3703 13.6224 21.3704 14.2345 21.3685 14.8038C21.2401 9.67818 17.2141 5.55912 12.2746 5.55912C7.33317 5.55912 3.30706 9.67817 3.18054 14.8019Z" fill="#F7CC65"/>
<path fill-rule="evenodd" clip-rule="evenodd" d="M23.1638 21.414C23.2271 21.7117 23.2606 22.0186 23.2606 22.3331C23.2606 22.5656 23.2606 22.707 23.2606 22.707H0.598236V22.3331C0.598236 22.0186 0.631728 21.7098 0.694984 21.414H23.1638Z" fill="#B78C25"/>
<path fill-rule="evenodd" clip-rule="evenodd" d="M3.30826 18.6742H7.46802C7.67155 18.6742 7.83698 18.5086 7.83698 18.302C7.83698 18.0971 7.67155 17.9297 7.46802 17.9297H3.30826C3.10473 17.9297 2.92664 18.0971 2.92664 18.302C2.92664 18.5086 3.10473 18.6742 3.30826 18.6742Z" fill="#B78C25"/>
<path fill-rule="evenodd" clip-rule="evenodd" d="M10.8074 5.69126C11.2883 5.60175 11.7691 5.56024 12.2678 5.56024C13.7641 5.56024 15.1714 5.93359 16.4183 6.60385V13.4419H10.8074V5.69126Z" fill="#B78C25"/>
<path fill-rule="evenodd" clip-rule="evenodd" d="M10.8251 3.59965C11.306 3.51014 11.7869 3.46869 12.2678 3.46869C13.7641 3.46869 15.1714 3.84417 16.4183 4.51662V6.60384C15.1714 5.93358 13.7641 5.56023 12.2678 5.56023C11.7691 5.56023 11.2883 5.60173 10.8074 5.69125V3.73504L10.8251 3.59965Z" fill="#B78C25"/>
<path fill-rule="evenodd" clip-rule="evenodd" d="M14.7346 3.43532C14.7346 2.30424 13.8084 1.3869 12.6862 1.3869C12.1875 1.3869 11.6709 1.3869 11.1722 1.3869C10.05 1.3869 9.12375 2.30424 9.12375 3.43532C9.12375 7.16345 9.12375 14.6785 9.12375 14.6785H14.7346C14.7346 14.6785 14.7346 7.16345 14.7346 3.43532Z" fill="#F4BB31"/>
<path fill-rule="evenodd" clip-rule="evenodd" d="M10.8625 13.3173V3.43631C10.8625 2.34422 11.7183 1.4512 12.7955 1.3898C12.7565 1.38794 12.7174 1.38794 12.6784 1.38794C12.1909 1.38794 11.6699 1.38794 11.1806 1.38794C10.0495 1.38794 9.13229 2.30515 9.13229 3.43631C9.13229 7.16469 9.13229 13.3173 9.13229 13.3173H10.8625Z" fill="#F7CC65"/>
<path fill-rule="evenodd" clip-rule="evenodd" d="M14.7267 4.85587V3.43631C14.7267 2.89306 14.5109 2.37217 14.1277 1.98705C13.7425 1.60379 13.2216 1.38794 12.6784 1.38794H11.1806C10.6374 1.38794 10.1165 1.60379 9.73322 1.98705C9.3481 2.37217 9.13229 2.89306 9.13229 3.43631V4.85587C9.13229 4.31262 9.3481 3.79168 9.73322 3.40656C10.1165 3.02331 10.6374 2.8075 11.1806 2.8075H12.6784C13.2216 2.8075 13.7425 3.02331 14.1277 3.40656C14.5109 3.79168 14.7267 4.31262 14.7267 4.85587Z" fill="#F7CC65"/>
<path fill-rule="evenodd" clip-rule="evenodd" d="M23.2664 13.9286C23.2664 13.2034 22.7353 12.5838 22.0211 12.4616C20.7025 12.2461 19.6404 11.8379 18.798 11.2557C18.3035 10.9096 17.6441 10.9034 17.1314 11.2391C16.1974 11.8565 15.1353 12.2647 13.9449 12.4699C13.2307 12.5963 12.7179 13.2117 12.7179 13.9328C12.7179 15.3605 12.7179 17.4264 12.7179 17.4305C12.7179 17.4326 12.7178 19.2767 14.7506 21.1416C16.234 22.5009 17.9921 22.706 17.9921 22.706C17.9921 22.706 19.7319 22.5009 21.2337 21.1416C23.2664 19.2746 23.2664 17.4305 23.2664 17.4305C23.2664 17.4305 23.2664 15.3563 23.2664 13.9286Z" fill="#25B736"/>
<path fill-rule="evenodd" clip-rule="evenodd" d="M9.39335 18.6742H11.6586C11.8664 18.6742 12.0327 18.5086 12.0327 18.302C12.0327 18.0971 11.8664 17.9297 11.6586 17.9297H9.39335C9.18553 17.9297 9.01932 18.0971 9.01932 18.302C9.01932 18.5086 9.18553 18.6742 9.39335 18.6742Z" fill="#B78C25"/>
<path fill-rule="evenodd" clip-rule="evenodd" d="M18.001 10.9935V22.7032C18.1834 22.679 19.8206 22.4242 21.2215 21.1423C23.2606 19.2763 23.2606 17.4288 23.2606 17.4288C23.2606 17.4288 23.2606 15.3563 23.2606 13.9293C23.2606 13.2037 22.7397 12.5841 22.0234 12.4614C20.6969 12.2455 19.6271 11.8381 18.7899 11.2558C18.5536 11.0902 18.2782 11.0028 18.001 10.9935Z" fill="#1C8928"/>
<path fill-rule="evenodd" clip-rule="evenodd" d="M19.7507 15.6146C19.5547 15.6146 19.3588 15.5362 19.2163 15.3973C19.0916 15.2566 19.0025 15.0678 19.0025 14.87V14.0881C19.0025 13.6766 18.664 13.3435 18.2544 13.3435C18.0762 13.3435 17.8804 13.3435 17.7023 13.3435C17.2926 13.3435 16.9541 13.6766 16.9541 14.0881C16.9541 14.3392 16.9541 14.6189 16.9541 14.87C16.9541 15.0678 16.8828 15.2566 16.7403 15.3973C16.5978 15.5362 16.4198 15.6146 16.2239 15.6146H15.44C15.0304 15.6146 14.6919 15.9477 14.6919 16.3591C14.6919 16.5408 14.6919 16.7332 14.6919 16.9149C14.6919 17.3264 15.0304 17.6594 15.44 17.6594C15.6894 17.6594 15.9745 17.6594 16.2239 17.6594C16.4198 17.6594 16.5978 17.7378 16.7403 17.8767C16.8828 18.0157 16.9541 18.2063 16.9541 18.4022V19.186C16.9541 19.5974 17.2926 19.9305 17.7023 19.9305C17.8804 19.9305 18.0762 19.9305 18.2544 19.9305C18.664 19.9305 19.0025 19.5974 19.0025 19.186C19.0025 18.9348 19.0025 18.6551 19.0025 18.4022C19.0025 18.2063 19.0916 18.0157 19.2163 17.8767C19.3588 17.7378 19.5547 17.6594 19.7507 17.6594H20.5345C20.9442 17.6594 21.2825 17.3264 21.2825 16.9149C21.2825 16.7332 21.2825 16.5408 21.2825 16.3591C21.2825 15.9477 20.9442 15.6146 20.5345 15.6146C20.2851 15.6146 20 15.6146 19.7507 15.6146Z" fill="#C8C8C8"/>
</svg>
