<svg width="24" height="24" viewBox="0 0 24 24" fill="none" xmlns="http://www.w3.org/2000/svg">
<g clip-path="url(#clip0_48_261)">
<path d="M11.992 1.456C10 1.456 8.45266 0.728 7.74533 0V10.1947H16.2393V0C15.5313 0.728 14 1.456 11.992 1.456Z" fill="#994308"/>
<path d="M19.2727 5.30533V2.112C19.2727 1.39 18.8233 0.761333 18.1827 0.586L16.0367 0L11.992 9.726L7.94732 0L5.80132 0.586C5.16066 0.761333 4.71132 1.39067 4.71132 2.112V5.30467C4.71132 7.74667 2.90066 9.726 0.666656 9.726V22.4167C0.666656 23.2207 1.30066 23.8733 2.08199 23.8733H9.96932C11.086 23.8733 11.992 22.8833 11.992 21.6627C11.992 22.8833 12.8973 23.8733 14.0147 23.8733H21.902C22.684 23.8733 23.318 23.2213 23.318 22.4167V9.726C21.0833 9.726 19.2727 7.74667 19.2727 5.30533Z" fill="#EB7421"/>
<path d="M0.666656 19.3334H11.992V21.3334H0.666656V19.3334ZM23.3173 21.3334H11.992V19.3334H23.3173V21.3334ZM0.666656 14.6667H11.992V16.6667H0.666656V14.6667ZM23.3173 16.6667H11.992V14.6667H23.3173V16.6667Z" fill="#FCFB65"/>
<path d="M8 15.3333V0.126667L7.94733 0L6 0.532V15.3333H8ZM18 15.3333V0.536667L16.0367 0L16 0.0886667V15.3333H18Z" fill="#FCFB65"/>
<path d="M11.284 7.33331V23.33C11.5095 23.1151 11.6887 22.8563 11.8104 22.5695C11.9322 22.2828 11.994 21.9742 11.992 21.6626C11.992 22.3153 12.2553 22.8953 12.6667 23.3V7.33331H11.284Z" fill="#994308"/>
</g>
<defs>
<clipPath id="clip0_48_261">
<rect width="24" height="24" fill="white"/>
</clipPath>
</defs>
</svg>
